<svg width="2000" height="2000" viewBox="0 0 2000 2000" fill="none" xmlns="http://www.w3.org/2000/svg">
<path d="M1137.6 813.6L1148.4 789C1164.6 796.2 1173.6 811.2 1173.6 828.6C1173.6 853.2 1155.6 873 1130.4 873C1122.6 873 1114.2 871.2 1107.6 865.8C1103.4 870.6 1095 873.6 1088.4 873.6C1063.2 873.6 1044 855.6 1044 829.8C1044 813 1051.2 796.2 1067.4 789.6L1078.8 814.8C1073.4 816.6 1071 823.2 1071 828.6C1071 837 1079.4 839.4 1086.6 839.4C1102.2 839.4 1095.6 811.2 1095.6 801.6H1119.6C1119.6 810.6 1113.6 838.8 1129.8 838.8C1137 838.8 1145.4 835.8 1145.4 827.4C1145.4 822.6 1143 814.8 1137.6 813.6ZM1160.4 909.6L1068.6 943.8L1060.2 919.2L1152 884.4L1160.4 909.6Z" fill="#EF5A6F"/>
<path fill-rule="evenodd" clip-rule="evenodd" d="M770.766 899.8C792.966 899.8 811.566 917.8 811.566 940C811.566 962.2 792.366 979.6 770.766 979.6C749.166 979.6 730.566 961.6 730.566 940C730.566 918.4 749.166 899.8 770.766 899.8ZM776.166 1034.2L851.766 978.4C857.729 987.115 863.32 996.29 868.889 1005.43L868.89 1005.43C891.889 1043.18 914.535 1080.35 961.604 1082.13C977.617 1081.36 989.378 1074.18 1000 1064.07V1168.49C990.031 1175.22 977.318 1178.74 965.166 1179.72V1180L963.725 1179.82C961.831 1179.94 959.954 1180 958.107 1180V1179.12L941.166 1177C937.566 1263.4 871.566 1332.4 783.366 1332.4C693.966 1332.4 624.966 1264 624.966 1174.6C624.966 1128.4 644.766 1082.2 673.566 1046.2L747.366 1097.2C729.966 1116.4 715.566 1140.4 715.566 1167.4C715.566 1204.6 746.166 1236.4 783.366 1236.4C819.966 1236.4 851.166 1205.2 851.166 1168.6C851.166 1135.96 807.735 1077.06 783.871 1044.71L783.871 1044.7C780.978 1040.78 778.372 1037.25 776.166 1034.2ZM1186.35 1000H1066.57C1082.03 991.671 1101.29 986.2 1126.71 986.2C1148.1 986.2 1168.35 991.161 1186.35 1000ZM1315.22 796.6L1306.82 759.4C1310.42 758.44 1314.02 757.288 1317.62 756.136C1323.02 754.408 1328.42 752.68 1333.82 751.6C1325.42 744.4 1322.42 733 1322.42 722.2C1322.42 685.6 1353.62 675.4 1384.82 675.4C1389.02 675.4 1393.82 675.4 1398.02 676L1396.22 710.8C1392.02 709.6 1387.22 708.4 1383.02 708.4C1371.62 708.4 1362.62 713.2 1362.62 725.8C1362.62 737.8 1376.42 741.4 1386.02 741.4C1393.22 741.4 1400.42 740.2 1407.02 738.4L1413.62 775.6C1383.62 776.2 1343.42 785.8 1315.22 796.6ZM1406.42 1180H1317.62V820H1406.42V1180Z" fill="white"/>
<path fill-rule="evenodd" clip-rule="evenodd" d="M1125.5 1256C1202.54 1256 1265 1193.54 1265 1116.5C1265 1039.46 1202.54 977 1125.5 977C1048.46 977 986 1039.46 986 1116.5C986 1193.54 1048.46 1256 1125.5 1256ZM1080.5 1136.15L1079.81 1134.76C1079.81 1126.75 1074.19 1121.57 1066.17 1121.57C1059.2 1121.57 1054.82 1128.21 1053.42 1134.76C1056.75 1169.07 1090.82 1200.75 1126 1200.75C1161.18 1200.75 1195.25 1169.07 1198.58 1134.77C1197.18 1128.21 1192.8 1121.57 1185.83 1121.57C1177.81 1121.57 1172.19 1126.75 1172.19 1134.77L1171.5 1136.15C1167.72 1157.85 1148.79 1174.36 1126 1174.36C1103.21 1174.36 1084.28 1157.85 1080.5 1136.15ZM1106.2 1075.38C1106.2 1064.45 1097.34 1055.58 1086.41 1055.58C1075.48 1055.58 1066.61 1064.45 1066.61 1075.38C1066.61 1086.31 1075.48 1095.17 1086.41 1095.17C1097.34 1095.17 1106.2 1086.31 1106.2 1075.38ZM1185.39 1075.38C1185.39 1064.45 1176.52 1055.58 1165.59 1055.58C1154.66 1055.58 1145.8 1064.45 1145.8 1075.38C1145.8 1086.31 1154.66 1095.17 1165.59 1095.17C1176.52 1095.17 1185.39 1086.31 1185.39 1075.38Z" fill="#EF5A6F"/>
</svg>
