<svg width="226" height="167" viewBox="0 0 226 167" fill="none" xmlns="http://www.w3.org/2000/svg">
<g filter="url(#filter0_d_102_707)">
<rect x="21.3229" y="21.3229" width="182.562" height="124.354" rx="14.5521" fill="white" fill-opacity="0.75" stroke="#D9D9D9" stroke-width="2.64583"/>
<path fill-rule="evenodd" clip-rule="evenodd" d="M64.165 67.2706C66.6523 67.4804 69.1396 66.0117 70.6942 64.1495C72.2228 62.235 73.2333 59.6647 72.9742 57.042C70.7719 57.1469 68.0514 58.5107 66.4968 60.4253C65.0718 62.0776 63.8541 64.7528 64.165 67.2706ZM93.7538 101.051V60.1632H108.911C116.735 60.1632 122.202 65.6185 122.202 73.5915C122.202 81.5645 116.632 87.0722 108.704 87.0722H100.024V101.051H93.7538ZM72.9483 67.7694C70.7571 67.6418 68.7576 68.4365 67.1426 69.0785C66.1034 69.4916 65.2233 69.8414 64.5537 69.8414C63.8023 69.8414 62.8859 69.4729 61.857 69.0591C60.5087 68.5169 58.9673 67.8971 57.3509 67.9268C53.6459 67.9793 50.1999 70.1036 48.3085 73.4869C44.4221 80.2535 47.2981 90.2723 51.0549 95.78C52.8945 98.5076 55.0968 101.497 57.9986 101.393C59.2753 101.344 60.1936 100.949 61.144 100.541C62.2382 100.071 63.3748 99.5829 65.1496 99.5829C66.8629 99.5829 67.9498 100.058 68.9932 100.515C69.9853 100.949 70.9381 101.366 72.3524 101.34C75.3579 101.288 77.2493 98.6125 79.0889 95.8849C81.074 92.9574 81.9464 90.1004 82.0788 89.6668L82.0893 89.6325L82.0944 89.6166C82.0912 89.6134 82.0667 89.602 82.0234 89.582C81.3597 89.2744 76.2875 86.9239 76.2388 80.6207C76.19 75.3301 80.262 72.6496 80.903 72.2276C80.9421 72.2019 80.9684 72.1846 80.9803 72.1756C78.3893 68.294 74.3475 67.8743 72.9483 67.7694ZM133.655 101.366C137.593 101.366 141.246 99.3461 142.904 96.1464H143.034V101.051H148.837V80.6986C148.837 74.7976 144.174 70.9946 136.997 70.9946C130.338 70.9946 125.415 74.85 125.234 80.1479H130.882C131.349 77.6301 133.655 75.9778 136.815 75.9778C140.65 75.9778 142.801 77.7874 142.801 81.1183V83.3738L134.976 83.8459C127.695 84.2918 123.757 87.3079 123.757 92.5533C123.757 97.8512 127.825 101.366 133.655 101.366ZM135.338 96.5134C131.996 96.5134 129.871 94.8873 129.871 92.3957C129.871 89.8255 131.918 88.3306 135.83 88.0945L142.8 87.6486V89.9566C142.8 93.7858 139.587 96.5134 135.338 96.5134ZM168.088 102.651C165.575 109.811 162.699 112.172 156.584 112.172C156.118 112.172 154.563 112.119 154.201 112.014V107.11C154.589 107.162 155.548 107.215 156.04 107.215C158.813 107.215 160.367 106.035 161.326 102.966L161.896 101.156L151.273 71.3887H157.828L165.212 95.5438H165.342L172.726 71.3887H179.1L168.088 102.651ZM100.023 65.5131H107.252C112.693 65.5131 115.802 68.4505 115.802 73.6172C115.802 78.784 112.693 81.7476 107.226 81.7476H100.023V65.5131Z" fill="black"/>
</g>
<defs>
<filter id="filter0_d_102_707" x="0" y="0" width="225.208" height="167" filterUnits="userSpaceOnUse" color-interpolation-filters="sRGB">
<feFlood flood-opacity="0" result="BackgroundImageFix"/>
<feColorMatrix in="SourceAlpha" type="matrix" values="0 0 0 0 0 0 0 0 0 0 0 0 0 0 0 0 0 0 127 0" result="hardAlpha"/>
<feOffset/>
<feGaussianBlur stdDeviation="10"/>
<feComposite in2="hardAlpha" operator="out"/>
<feColorMatrix type="matrix" values="0 0 0 0 0 0 0 0 0 0 0 0 0 0 0 0 0 0 0.07 0"/>
<feBlend mode="normal" in2="BackgroundImageFix" result="effect1_dropShadow_102_707"/>
<feBlend mode="normal" in="SourceGraphic" in2="effect1_dropShadow_102_707" result="shape"/>
</filter>
</defs>
</svg>
