<svg width="226" height="167" viewBox="0 0 226 167" fill="none" xmlns="http://www.w3.org/2000/svg">
<g filter="url(#filter0_d_102_987)">
<rect x="21.3229" y="21.3229" width="182.562" height="124.354" rx="14.5521" fill="white" fill-opacity="0.75" stroke="#D9D9D9" stroke-width="2.64583"/>
<path fill-rule="evenodd" clip-rule="evenodd" d="M155.609 83.8421C155.609 107.411 136.504 126.517 112.936 126.517C89.3688 126.517 70.2634 107.411 70.2634 83.8421C70.2634 60.2733 89.3688 41.167 112.936 41.167C136.504 41.167 155.609 60.2733 155.609 83.8421ZM123.188 67.9865C129.124 70.025 133.467 73.0774 132.615 78.758C131.996 82.9177 129.682 84.9295 126.606 85.6339C130.825 87.8218 132.263 91.9742 130.927 96.9951C128.39 104.221 122.361 104.829 114.341 103.319L112.393 111.086L107.692 109.917L109.613 102.254C108.394 101.953 107.148 101.63 105.865 101.286L103.937 108.986L99.241 107.817L101.186 100.034L91.7166 97.6541L94.0524 92.2911C94.0524 92.2911 97.5186 93.2063 97.4704 93.1396C98.8017 93.4677 99.3937 92.6033 99.6267 92.0296L104.904 70.9482C104.963 69.9529 104.617 68.6989 102.713 68.2239C102.785 68.1733 99.2972 67.3781 99.2972 67.3781L100.548 62.3753L110.031 64.7153L111.959 57.0202L116.658 58.1889L114.769 65.7318C116.034 66.0173 117.303 66.3082 118.538 66.615L120.413 59.1201L125.114 60.2887L123.188 67.9865ZM111.939 80.8234C115.142 81.6724 122.11 83.5199 123.325 78.6758C124.564 73.7196 117.794 72.2228 114.479 71.4899C114.103 71.4068 113.772 71.3336 113.502 71.2662L111.161 80.6209C111.384 80.676 111.645 80.7454 111.939 80.8231L111.939 80.8234L111.939 80.8234ZM108.311 95.8843C112.147 96.8946 120.535 99.1044 121.87 93.7666C123.236 88.3089 115.103 86.491 111.134 85.604L111.134 85.6039C110.691 85.5048 110.3 85.4173 109.979 85.3377L107.397 95.6476C107.66 95.7127 107.967 95.7936 108.311 95.8843Z" fill="#F7931A"/>
</g>
<defs>
<filter id="filter0_d_102_987" x="0" y="0" width="225.208" height="167" filterUnits="userSpaceOnUse" color-interpolation-filters="sRGB">
<feFlood flood-opacity="0" result="BackgroundImageFix"/>
<feColorMatrix in="SourceAlpha" type="matrix" values="0 0 0 0 0 0 0 0 0 0 0 0 0 0 0 0 0 0 127 0" result="hardAlpha"/>
<feOffset/>
<feGaussianBlur stdDeviation="10"/>
<feComposite in2="hardAlpha" operator="out"/>
<feColorMatrix type="matrix" values="0 0 0 0 0 0 0 0 0 0 0 0 0 0 0 0 0 0 0.07 0"/>
<feBlend mode="normal" in2="BackgroundImageFix" result="effect1_dropShadow_102_987"/>
<feBlend mode="normal" in="SourceGraphic" in2="effect1_dropShadow_102_987" result="shape"/>
</filter>
</defs>
</svg>
