<svg width="226" height="167" viewBox="0 0 226 167" fill="none" xmlns="http://www.w3.org/2000/svg">
<g filter="url(#filter0_d_102_813)">
<rect x="21.3229" y="21.3229" width="182.562" height="124.354" rx="14.5521" fill="white" fill-opacity="0.75" stroke="#D9D9D9" stroke-width="2.64583"/>
<path fill-rule="evenodd" clip-rule="evenodd" d="M107.472 103.386V87.4005H115.723C119.103 87.4005 121.957 86.2676 124.283 84.0334L124.842 83.467C129.091 78.8411 128.812 71.6349 124.283 67.3552C122.019 65.0895 118.917 63.8622 115.723 63.9252H102.478V103.386H107.472ZM107.473 82.5545V68.7714H115.849C117.648 68.7714 119.354 69.4637 120.626 70.7224C123.325 73.3658 123.387 77.7713 120.781 80.5091C119.509 81.8622 117.71 82.6175 115.849 82.5545H107.473ZM148.136 78.4956C145.996 76.5131 143.08 75.5061 139.389 75.5061C134.643 75.5061 131.076 77.2684 128.719 80.7613L133.124 83.562C134.736 81.1704 136.939 79.9746 139.73 79.9746C141.498 79.9746 143.204 80.6355 144.538 81.8313C145.841 82.9641 146.585 84.6005 146.585 86.3312V87.4956C144.662 86.4256 142.243 85.8592 139.265 85.8592C135.791 85.8592 132.999 86.6774 130.921 88.3452C128.843 90.013 127.789 92.2158 127.789 95.0165C127.727 97.5654 128.812 99.9885 130.735 101.625C132.689 103.387 135.171 104.268 138.086 104.268C141.529 104.268 144.259 102.726 146.337 99.6423H146.554V103.387H151.331V86.7403C151.331 83.2473 150.276 80.4781 148.136 78.4956ZM134.582 98.4143C133.559 97.6591 132.938 96.4318 132.938 95.1101C132.938 93.6311 133.621 92.4039 134.955 91.4283C136.32 90.4528 138.026 89.9493 140.042 89.9493C142.834 89.9179 145.006 90.5472 146.557 91.806C146.557 93.9458 145.719 95.8024 144.075 97.3758C142.586 98.8863 140.57 99.736 138.46 99.736C137.064 99.7674 135.699 99.2954 134.582 98.4143ZM162.063 115.251L178.75 76.3872H173.322L165.599 95.7717H165.506L157.596 76.3872H152.168L163.117 101.656L156.914 115.251H162.063Z" fill="#3C4043"/>
<path d="M90.2314 83.9381C90.2314 82.3962 90.1073 80.8542 89.8592 79.3438H68.7983V88.0605H80.8641C80.3678 90.8611 78.7549 93.3786 76.3976 94.952V100.616H83.5936C87.812 96.6828 90.2314 90.8611 90.2314 83.9381Z" fill="#4285F4"/>
<path d="M68.7993 106.092C74.8167 106.092 79.9035 104.078 83.5946 100.616L76.3986 94.9521C74.3824 96.3367 71.808 97.1234 68.7993 97.1234C62.968 97.1234 58.0363 93.127 56.2683 87.7773H48.8551V93.6304C52.6392 101.277 60.3626 106.092 68.7993 106.092Z" fill="#34A853"/>
<path d="M56.2692 87.7774C55.3385 84.9767 55.3385 81.9243 56.2692 79.0921V73.2705H48.8549C45.6595 79.6586 45.6595 87.211 48.8549 93.599L56.2692 87.7774Z" fill="#FBBC04"/>
<path d="M68.7993 69.7462C71.9941 69.6833 75.0648 70.9105 77.3601 73.1448L83.7497 66.6623C79.6864 62.8232 74.3514 60.7148 68.7993 60.7777C60.3626 60.7777 52.6392 65.6239 48.8551 73.2706L56.2683 79.1237C58.0363 73.7427 62.968 69.7462 68.7993 69.7462Z" fill="#EA4335"/>
</g>
<defs>
<filter id="filter0_d_102_813" x="0" y="0" width="225.208" height="167" filterUnits="userSpaceOnUse" color-interpolation-filters="sRGB">
<feFlood flood-opacity="0" result="BackgroundImageFix"/>
<feColorMatrix in="SourceAlpha" type="matrix" values="0 0 0 0 0 0 0 0 0 0 0 0 0 0 0 0 0 0 127 0" result="hardAlpha"/>
<feOffset/>
<feGaussianBlur stdDeviation="10"/>
<feComposite in2="hardAlpha" operator="out"/>
<feColorMatrix type="matrix" values="0 0 0 0 0 0 0 0 0 0 0 0 0 0 0 0 0 0 0.07 0"/>
<feBlend mode="normal" in2="BackgroundImageFix" result="effect1_dropShadow_102_813"/>
<feBlend mode="normal" in="SourceGraphic" in2="effect1_dropShadow_102_813" result="shape"/>
</filter>
</defs>
</svg>
