<svg width="226" height="167" viewBox="0 0 226 167" fill="none" xmlns="http://www.w3.org/2000/svg">
<g filter="url(#filter0_d_102_859)">
<rect x="21.3229" y="21.3229" width="182.562" height="124.354" rx="14.5521" fill="white" fill-opacity="0.75" stroke="#D9D9D9" stroke-width="2.64583"/>
<path fill-rule="evenodd" clip-rule="evenodd" d="M72.3875 100.649H64.1557C63.5924 100.649 63.1133 101.059 63.0255 101.615L59.6961 122.724C59.63 123.14 59.9525 123.516 60.375 123.516H64.305C64.8683 123.516 65.3474 123.106 65.4352 122.549L66.3332 116.856C66.4198 116.298 66.9001 115.889 67.4622 115.889H70.0681C75.4907 115.889 78.62 113.265 79.4377 108.066C79.8059 105.791 79.4533 104.003 78.3877 102.751C77.218 101.377 75.1425 100.649 72.3875 100.649ZM73.3372 108.359C72.8872 111.313 70.6303 111.313 68.448 111.313H67.2058L68.0773 105.796C68.129 105.463 68.4179 105.218 68.7549 105.218H69.3243C70.8108 105.218 72.2132 105.218 72.9379 106.065C73.3696 106.571 73.5021 107.321 73.3372 108.359ZM96.9944 108.264H93.0524C92.7165 108.264 92.4263 108.51 92.3745 108.844L92.2001 109.946L91.9244 109.547C91.0711 108.308 89.1683 107.894 87.2689 107.894C82.9124 107.894 79.1921 111.193 78.4674 115.821C78.0909 118.13 78.6261 120.337 79.9357 121.877C81.1372 123.292 82.8561 123.882 84.901 123.882C88.4107 123.882 90.3575 121.625 90.3575 121.625L90.1815 122.721C90.1152 123.14 90.4377 123.515 90.8577 123.515H94.4087C94.9735 123.515 95.4498 123.106 95.5389 122.549L97.6695 109.057C97.7369 108.642 97.4155 108.264 96.9944 108.264ZM91.4994 115.937C91.119 118.189 89.3315 119.701 87.0522 119.701C85.9075 119.701 84.9923 119.334 84.4052 118.638C83.8226 117.947 83.6009 116.963 83.7864 115.868C84.1417 113.635 85.9593 112.074 88.2041 112.074C89.3231 112.074 90.2333 112.446 90.8327 113.148C91.4331 113.857 91.6715 114.846 91.4994 115.937ZM114.027 108.264H117.989C118.544 108.264 118.867 108.886 118.552 109.341L105.377 128.359C105.164 128.667 104.812 128.85 104.437 128.85H100.48C99.9232 128.85 99.5979 128.223 99.9204 127.767L104.023 121.976L99.6597 109.171C99.5088 108.726 99.8374 108.264 100.311 108.264H104.203C104.709 108.264 105.155 108.596 105.301 109.08L107.617 116.814L113.081 108.766C113.294 108.452 113.65 108.264 114.027 108.264Z" fill="#253B80"/>
<path fill-rule="evenodd" clip-rule="evenodd" d="M156.977 122.724L160.356 101.229C160.407 100.895 160.696 100.65 161.032 100.648H164.836C165.256 100.648 165.578 101.025 165.512 101.442L162.18 122.549C162.093 123.106 161.614 123.516 161.05 123.516H157.653C157.233 123.516 156.911 123.14 156.977 122.724ZM131.104 100.65H122.871C122.309 100.65 121.83 101.059 121.742 101.615L118.413 122.724C118.346 123.14 118.669 123.516 119.089 123.516H123.314C123.707 123.516 124.042 123.229 124.104 122.84L125.048 116.856C125.135 116.298 125.615 115.89 126.177 115.89H128.782C134.206 115.89 137.335 113.265 138.153 108.066C138.522 105.791 138.167 104.003 137.102 102.751C135.933 101.377 133.859 100.65 131.104 100.65ZM132.054 108.359C131.605 111.313 129.348 111.313 127.164 111.313H125.923L126.796 105.796C126.848 105.463 127.134 105.218 127.473 105.218H128.042C129.527 105.218 130.931 105.218 131.655 106.065C132.087 106.571 132.219 107.322 132.054 108.359ZM155.709 108.265H151.77C151.431 108.265 151.144 108.51 151.093 108.844L150.919 109.946L150.642 109.547C149.788 108.308 147.887 107.894 145.987 107.894C141.631 107.894 137.912 111.193 137.187 115.822C136.811 118.13 137.345 120.337 138.654 121.877C139.858 123.292 141.575 123.882 143.619 123.882C147.129 123.882 149.075 121.625 149.075 121.625L148.9 122.721C148.834 123.14 149.156 123.515 149.579 123.515H153.128C153.69 123.515 154.169 123.106 154.257 122.549L156.389 109.057C156.454 108.642 156.132 108.265 155.709 108.265ZM150.214 115.937C149.836 118.189 148.047 119.701 145.767 119.701C144.624 119.701 143.707 119.334 143.12 118.638C142.537 117.947 142.318 116.964 142.501 115.868C142.858 113.635 144.674 112.075 146.919 112.075C148.038 112.075 148.948 112.446 149.548 113.148C150.15 113.857 150.389 114.846 150.214 115.937Z" fill="#179BD7"/>
<path d="M102.852 93.0976L103.864 86.6696L101.61 86.6172H90.8452L98.326 39.1836C98.3488 39.0404 98.4246 38.9069 98.5349 38.8121C98.6451 38.7173 98.7866 38.665 98.9337 38.665H117.084C123.11 38.665 127.268 39.9189 129.439 42.3938C130.457 43.5549 131.105 44.7681 131.419 46.1033C131.748 47.5043 131.754 49.1781 131.432 51.2196L131.409 51.3686V52.6766L132.427 53.2533C133.284 53.708 133.965 54.2285 134.488 54.8245C135.359 55.8172 135.922 57.0789 136.16 58.5746C136.405 60.113 136.324 61.9435 135.922 64.016C135.457 66.4 134.707 68.4762 133.693 70.1752C132.76 71.7406 131.572 73.0388 130.161 74.0453C128.814 75.0012 127.214 75.727 125.405 76.1915C123.651 76.6477 121.653 76.8783 119.46 76.8783H118.048C117.038 76.8783 116.056 77.242 115.287 77.8943C114.515 78.56 114.003 79.469 113.847 80.4638L113.74 81.0426L111.952 92.3718L111.871 92.7879C111.85 92.9199 111.813 92.9856 111.759 93.0302C111.711 93.0703 111.641 93.0976 111.573 93.0976H102.852Z" fill="#253B80"/>
<path d="M133.391 51.5195C133.337 51.8659 133.275 52.22 133.205 52.5838C130.811 64.8732 122.623 69.1187 112.163 69.1187H106.838C105.559 69.1187 104.482 70.0475 104.282 71.3091L101.556 88.6008L100.784 93.502C100.654 94.3303 101.293 95.0773 102.128 95.0773H111.574C112.692 95.0773 113.642 94.2646 113.818 93.1617L113.911 92.6815L115.689 81.3963L115.804 80.7775C115.977 79.6707 116.929 78.858 118.048 78.858H119.46C128.611 78.858 135.775 75.1427 137.869 64.3914C138.743 59.9002 138.29 56.1501 135.976 53.5126C135.276 52.7173 134.407 52.0574 133.391 51.5195Z" fill="#179BD7"/>
<path d="M130.886 50.5222C130.52 50.4158 130.143 50.319 129.756 50.232C129.367 50.1469 128.968 50.0714 128.558 50.0056C127.122 49.7734 125.549 49.6631 123.864 49.6631H109.637C109.287 49.6631 108.954 49.7424 108.656 49.8856C108 50.201 107.513 50.8222 107.395 51.5826L104.368 70.7511L104.281 71.3103C104.48 70.0487 105.558 69.1199 106.837 69.1199H112.162C122.621 69.1199 130.811 64.8725 133.204 52.585C133.276 52.2212 133.336 51.8671 133.39 51.5207C132.784 51.1995 132.128 50.9247 131.422 50.6906C131.248 50.6325 131.068 50.5764 130.886 50.5222Z" fill="#222D65"/>
<path d="M107.395 51.5824C107.513 50.8219 108.001 50.2008 108.656 49.8873C108.957 49.7441 109.288 49.6648 109.637 49.6648H123.864C125.55 49.6648 127.123 49.7751 128.558 50.0073C128.969 50.0731 129.368 50.1486 129.756 50.2337C130.143 50.3208 130.521 50.4175 130.887 50.5239C131.068 50.5781 131.248 50.6342 131.424 50.6904C132.13 50.9245 132.787 51.2012 133.392 51.5205C134.104 46.979 133.386 43.8868 130.931 41.0867C128.224 38.0043 123.338 36.6846 117.086 36.6846H98.9348C97.6576 36.6846 96.5686 37.6133 96.3709 38.8769L88.811 86.7982C88.6617 87.7462 89.3931 88.6018 90.349 88.6018H101.555L104.369 70.7509L107.395 51.5824Z" fill="#253B80"/>
</g>
<defs>
<filter id="filter0_d_102_859" x="0" y="0" width="225.208" height="167" filterUnits="userSpaceOnUse" color-interpolation-filters="sRGB">
<feFlood flood-opacity="0" result="BackgroundImageFix"/>
<feColorMatrix in="SourceAlpha" type="matrix" values="0 0 0 0 0 0 0 0 0 0 0 0 0 0 0 0 0 0 127 0" result="hardAlpha"/>
<feOffset/>
<feGaussianBlur stdDeviation="10"/>
<feComposite in2="hardAlpha" operator="out"/>
<feColorMatrix type="matrix" values="0 0 0 0 0 0 0 0 0 0 0 0 0 0 0 0 0 0 0.07 0"/>
<feBlend mode="normal" in2="BackgroundImageFix" result="effect1_dropShadow_102_859"/>
<feBlend mode="normal" in="SourceGraphic" in2="effect1_dropShadow_102_859" result="shape"/>
</filter>
</defs>
</svg>
