<svg width="226" height="167" viewBox="0 0 226 167" fill="none" xmlns="http://www.w3.org/2000/svg">
<g filter="url(#filter0_d_102_1042)">
<rect x="21.3229" y="21.3229" width="182.562" height="124.354" rx="14.5521" fill="white" fill-opacity="0.75" stroke="#D9D9D9" stroke-width="2.64583"/>
<path fill-rule="evenodd" clip-rule="evenodd" d="M119.512 63.0845L110.104 65.1036V57.4759L119.512 55.4941V63.0845ZM81.2793 59.8311L72.1334 61.7754L72.096 91.7257C72.096 97.2596 76.2566 101.335 81.804 101.335C84.8776 101.335 87.1266 100.774 88.3635 100.101V92.5109C87.1641 92.997 81.2418 94.717 81.2418 89.1831V75.9093H88.3635V67.945H81.2418L81.2793 59.8311ZM59.1275 75.4238C57.1409 75.4238 55.9415 75.9847 55.9415 77.443C55.9415 79.0351 58.0057 79.7355 60.5667 80.6044C64.7417 82.021 70.2367 83.8854 70.2599 90.7916C70.2599 97.4846 64.8999 101.336 57.1034 101.336C53.8799 101.336 50.3565 100.7 46.8706 99.2046V90.3055C50.0192 92.0255 53.9924 93.2968 57.1034 93.2968C59.2025 93.2968 60.7018 92.7359 60.7018 91.0159C60.7018 89.2523 58.4641 88.4462 55.7625 87.473C51.6483 85.9908 46.4583 84.1211 46.4583 77.8916C46.4583 71.2734 51.5185 67.31 59.1275 67.31C62.2386 67.31 65.3122 67.796 68.4232 69.0299V77.8169C65.5745 76.2838 61.9762 75.4238 59.1275 75.4238ZM100.021 70.7127L99.4214 67.9458H91.3251V100.663H100.696V78.4901C102.907 75.611 106.656 76.1344 107.817 76.5457V67.9458C106.618 67.4971 102.233 66.6745 100.021 70.7127ZM110.103 67.9456H119.511V100.663H110.103V67.9456ZM181.396 84.4351C181.396 74.863 176.748 67.31 167.864 67.31C158.944 67.31 153.546 74.863 153.546 84.3603C153.546 95.615 159.918 101.298 169.064 101.298C173.524 101.298 176.898 100.289 179.447 98.868V91.3898C176.898 92.6611 173.974 93.4463 170.263 93.4463C166.628 93.4463 163.404 92.175 162.992 87.7629H181.321C181.321 87.5569 181.334 87.0892 181.35 86.5503L181.35 86.5492C181.371 85.8164 181.396 84.952 181.396 84.4351ZM162.879 80.8827C162.879 76.6575 165.465 74.9001 167.827 74.9001C170.113 74.9001 172.55 76.6575 172.55 80.8827H162.879ZM131.731 70.2265C133.043 69.0299 135.404 67.31 139.077 67.31C145.637 67.31 151.821 73.2178 151.859 84.0612C151.859 95.9142 145.749 101.299 139.04 101.299C135.741 101.299 133.755 99.915 132.405 98.9429L132.368 109.525L122.997 111.506V67.9082H131.243L131.731 70.2265ZM132.405 91.3149C133.305 92.2871 134.617 93.0723 136.828 93.0723C140.277 93.0723 142.601 89.3332 142.601 84.3228C142.601 79.4246 140.239 75.6107 136.828 75.6107C134.692 75.6107 133.342 76.3585 132.368 77.4428L132.405 91.3149Z" fill="#6461FC"/>
</g>
<defs>
<filter id="filter0_d_102_1042" x="0" y="0" width="225.208" height="167" filterUnits="userSpaceOnUse" color-interpolation-filters="sRGB">
<feFlood flood-opacity="0" result="BackgroundImageFix"/>
<feColorMatrix in="SourceAlpha" type="matrix" values="0 0 0 0 0 0 0 0 0 0 0 0 0 0 0 0 0 0 127 0" result="hardAlpha"/>
<feOffset/>
<feGaussianBlur stdDeviation="10"/>
<feComposite in2="hardAlpha" operator="out"/>
<feColorMatrix type="matrix" values="0 0 0 0 0 0 0 0 0 0 0 0 0 0 0 0 0 0 0.07 0"/>
<feBlend mode="normal" in2="BackgroundImageFix" result="effect1_dropShadow_102_1042"/>
<feBlend mode="normal" in="SourceGraphic" in2="effect1_dropShadow_102_1042" result="shape"/>
</filter>
</defs>
</svg>
