<svg width="226" height="167" viewBox="0 0 226 167" fill="none" xmlns="http://www.w3.org/2000/svg">
<g filter="url(#filter0_d_102_752)">
<rect x="21.3229" y="21.3229" width="182.562" height="124.354" rx="14.5521" fill="white" fill-opacity="0.75" stroke="#D9D9D9" stroke-width="2.64583"/>
<path fill-rule="evenodd" clip-rule="evenodd" d="M76.2253 106.033H65.0053L56.5916 73.9345C56.1923 72.458 55.3444 71.1526 54.0971 70.5374C50.9844 68.9913 47.5543 67.7609 43.8125 67.1403V65.9045H61.8871C64.3816 65.9045 66.2526 67.7609 66.5644 69.9168L70.9299 93.0706L82.1444 65.9045H93.0526L76.2253 106.033ZM99.2889 106.033H88.6925L97.418 65.9045H108.014L99.2889 106.033ZM121.724 77.0218C122.036 74.8605 123.906 73.6247 126.089 73.6247C129.519 73.3144 133.256 73.935 136.374 75.4757L138.245 66.8359C135.126 65.6001 131.696 64.9795 128.584 64.9795C118.299 64.9795 110.815 70.5379 110.815 78.2523C110.815 84.1209 116.116 87.2024 119.858 89.0588C123.906 90.9098 125.466 92.1456 125.154 93.9966C125.154 96.7731 122.036 98.0089 118.923 98.0089C115.181 98.0089 111.439 97.0834 108.015 95.5373L106.144 104.183C109.885 105.723 113.934 106.344 117.675 106.344C129.207 106.649 136.374 101.096 136.374 92.7608C136.374 82.2646 121.724 81.6494 121.724 77.0218V77.0218ZM173.458 106.033L165.045 65.9045H156.007C154.136 65.9045 152.265 67.1403 151.642 68.9913L136.062 106.033H146.97L149.147 100.17H162.55L163.797 106.033H173.458ZM157.567 76.7113L160.679 91.8351H151.954L157.567 76.7113Z" fill="#172B85"/>
</g>
<defs>
<filter id="filter0_d_102_752" x="0" y="0" width="225.208" height="167" filterUnits="userSpaceOnUse" color-interpolation-filters="sRGB">
<feFlood flood-opacity="0" result="BackgroundImageFix"/>
<feColorMatrix in="SourceAlpha" type="matrix" values="0 0 0 0 0 0 0 0 0 0 0 0 0 0 0 0 0 0 127 0" result="hardAlpha"/>
<feOffset/>
<feGaussianBlur stdDeviation="10"/>
<feComposite in2="hardAlpha" operator="out"/>
<feColorMatrix type="matrix" values="0 0 0 0 0 0 0 0 0 0 0 0 0 0 0 0 0 0 0.07 0"/>
<feBlend mode="normal" in2="BackgroundImageFix" result="effect1_dropShadow_102_752"/>
<feBlend mode="normal" in="SourceGraphic" in2="effect1_dropShadow_102_752" result="shape"/>
</filter>
</defs>
</svg>
